<?xml version="1.0" encoding="UTF-8"?>
<svg width="446px" height="412px" viewBox="0 0 446 412" version="1.1" xmlns="http://www.w3.org/2000/svg" xmlns:xlink="http://www.w3.org/1999/xlink">
    <!-- Generator: Sketch 62 (91390) - https://sketch.com -->
    <title>Group 47</title>
    <desc>Created with Sketch.</desc>
    <defs>
        <polygon id="path-1" points="0.933445438 163.231406 24.5453819 0.0641113084 113.691165 51.6962252 89.8605209 214.117683"></polygon>
        <filter x="-7.1%" y="-8.4%" width="128.4%" height="114.9%" filterUnits="objectBoundingBox" id="filter-2">
            <feOffset dx="8" dy="-2" in="SourceAlpha" result="shadowOffsetOuter1"></feOffset>
            <feGaussianBlur stdDeviation="4" in="shadowOffsetOuter1" result="shadowBlurOuter1"></feGaussianBlur>
            <feColorMatrix values="0 0 0 0 0   0 0 0 0 0   0 0 0 0 0  0 0 0 0.16 0" type="matrix" in="shadowBlurOuter1"></feColorMatrix>
        </filter>
        <polygon id="path-3" points="230.676031 305.682242 0 171.825559 25.4514462 -7.66522135e-13 256.127477 132.213959"></polygon>
        <filter x="-2.7%" y="-5.2%" width="110.9%" height="109.2%" filterUnits="objectBoundingBox" id="filter-4">
            <feOffset dx="7" dy="-2" in="SourceAlpha" result="shadowOffsetOuter1"></feOffset>
            <feGaussianBlur stdDeviation="3.5" in="shadowOffsetOuter1" result="shadowBlurOuter1"></feGaussianBlur>
            <feColorMatrix values="0 0 0 0 0   0 0 0 0 0   0 0 0 0 0  0 0 0 0.16 0" type="matrix" in="shadowBlurOuter1"></feColorMatrix>
        </filter>
        <polygon id="path-5" points="19.199203 4.59579041e-13 9.25496227 75.790914 231.629551 199.55787 242.290804 128.143054"></polygon>
        <filter x="-4.5%" y="-7.8%" width="118.0%" height="117.5%" filterUnits="objectBoundingBox" id="filter-6">
            <feOffset dx="14" dy="2" in="SourceAlpha" result="shadowOffsetOuter1"></feOffset>
            <feGaussianBlur stdDeviation="3.5" in="shadowOffsetOuter1" result="shadowBlurOuter1"></feGaussianBlur>
            <feColorMatrix values="0 0 0 0 0   0 0 0 0 0   0 0 0 0 0  0 0 0 0.159883086 0" type="matrix" in="shadowBlurOuter1"></feColorMatrix>
        </filter>
        <polygon id="path-7" points="-3.34239303e-13 151.331038 8.15212931 90.4485491 77.6836676 130.603004 68.9119053 191.586197"></polygon>
        <filter x="-13.5%" y="-15.3%" width="154.1%" height="134.6%" filterUnits="objectBoundingBox" id="filter-8">
            <feOffset dx="14" dy="2" in="SourceAlpha" result="shadowOffsetOuter1"></feOffset>
            <feGaussianBlur stdDeviation="3.5" in="shadowOffsetOuter1" result="shadowBlurOuter1"></feGaussianBlur>
            <feColorMatrix values="0 0 0 0 0   0 0 0 0 0   0 0 0 0 0  0 0 0 0.14 0" type="matrix" in="shadowBlurOuter1"></feColorMatrix>
        </filter>
        <polygon id="path-9" points="74.1664 195.156638 82.3185293 134.274149 151.850068 174.428604 143.078305 235.411797"></polygon>
        <filter x="-13.5%" y="-15.3%" width="154.1%" height="134.6%" filterUnits="objectBoundingBox" id="filter-10">
            <feOffset dx="14" dy="2" in="SourceAlpha" result="shadowOffsetOuter1"></feOffset>
            <feGaussianBlur stdDeviation="3.5" in="shadowOffsetOuter1" result="shadowBlurOuter1"></feGaussianBlur>
            <feColorMatrix values="0 0 0 0 0   0 0 0 0 0   0 0 0 0 0  0 0 0 0.14 0" type="matrix" in="shadowBlurOuter1"></feColorMatrix>
        </filter>
        <polygon id="path-11" points="151.704 238.982238 159.856129 178.099749 229.387668 218.254204 220.615905 279.237397"></polygon>
        <filter x="-13.5%" y="-15.3%" width="154.1%" height="134.6%" filterUnits="objectBoundingBox" id="filter-12">
            <feOffset dx="14" dy="2" in="SourceAlpha" result="shadowOffsetOuter1"></feOffset>
            <feGaussianBlur stdDeviation="3.5" in="shadowOffsetOuter1" result="shadowBlurOuter1"></feGaussianBlur>
            <feColorMatrix values="0 0 0 0 0   0 0 0 0 0   0 0 0 0 0  0 0 0 0.14 0" type="matrix" in="shadowBlurOuter1"></feColorMatrix>
        </filter>
    </defs>
    <g id="Page-1" stroke="none" stroke-width="1" fill="none" fill-rule="evenodd">
        <g id="Group-47" transform="translate(-2.000000, 8.000000)">
            <g id="Group-45">
                <g id="Group-34" transform="translate(0.000000, 7.840000)">
                    <polygon id="Path-12" fill="#616AA4" points="143.013802 174.824361 172.526502 1.56348603 182.293146 7.24801827 400.594692 134.307242 374.202956 309.137772"></polygon>
                    <path d="M374.202956,309.137772 C377.284643,307.608579 379.434249,304.680864 379.970387,301.28266 L406.57694,132.64231 L406.57694,132.64231 L400.594692,134.307242 L374.202956,309.137772 Z" id="Path-13" fill="#3D4788" opacity="0.628510975"></path>
                    <path d="M172.526502,1.56348603 C175.343751,0.571167463 178.454009,0.859983201 181.040371,2.35407618 L406.57694,132.64231 L406.57694,132.64231 L400.594692,134.307242 L172.526502,1.56348603 Z" id="Path-14" fill="#3D4788"></path>
                    <path d="M2.13698011,256.607266 L4.26072051,261.166679 C5.59643838,264.034304 7.78260549,266.421188 10.5221755,268.003012 L230.652445,395.105956 C232.014623,395.892476 233.692989,395.892293 235.054995,395.105475 L366.034345,319.439947 C368.497941,318.01675 370.51928,315.9391 371.874262,313.437338 L374.202956,309.137772 L374.202956,309.137772 L232.713818,390.317869 L2.13698011,256.607266 Z" id="Path-15" fill="#252E63"></path>
                    <path d="M3.33847555,254.39041 L143.013802,174.824361 L143.013802,174.824361 L374.202956,309.137772 L232.713818,390.317869 L3.32945282,258.209687 C2.27621556,257.603101 1.91413288,256.257549 2.52071851,255.204312 C2.71607114,254.865114 2.99835826,254.584157 3.33847555,254.39041 Z" id="Path-11" fill="#3D4788"></path>
                    <polygon id="Path-18" fill="#FFFFFF" opacity="0.529110863" points="148.679953 171.09612 176.737932 14.172545 393.02078 139.040449 368.970163 296.54693"></polygon>
                </g>
                <polygon id="Path-72" fill="#252E63" points="252.612841 365.306607 53.9413519 249.432276 146.333998 195.687269 343.835587 311.284025"></polygon>
                <g id="Group-46" transform="translate(318.500000, 59.780000)">
                    <g id="Path-36">
                        <use fill="black" fill-opacity="1" filter="url(#filter-2)" xlink:href="#path-1"></use>
                        <use fill="#FFFFFF" fill-rule="evenodd" xlink:href="#path-1"></use>
                    </g>
                    <polygon id="Path-37" fill="#888EB4" points="23.1893311 9.3605656 112.369203 60.753953 113.737942 51.508074 24.6494692 0.0520066977"></polygon>
                    <polygon id="Path-35" fill="#3D4788" points="99.8699548 62.3670774 99.0863909 67.5291076 30.6040114 28.1390299 31.3555948 22.9778771"></polygon>
                    <polygon id="Path-50" fill="#616AA4" points="28.618814 41.5668049 59.1190947 59.1475444 59.7886333 54.6723754 29.2282431 37.2160029"></polygon>
                    <polygon id="Path-51" fill="#616AA4" points="27.9261849 46.105054 50.3208126 59.0317046 49.6635391 63.7560892 27.215426 50.7829684"></polygon>
                    <polygon id="Path-52" fill="#616AA4" points="25.8828973 59.9718369 64.5765534 81.8940235 65.2219377 77.6308418 26.5836784 55.0709302"></polygon>
                    <polygon id="Path-53" fill="#616AA4" points="24.565598 68.9138101 46.9216437 81.9056757 47.60084 77.2900042 25.1836019 64.3741715"></polygon>
                    <polygon id="Path-54" fill="#616AA4" points="23.2530271 77.9423348 53.7836552 95.3748359 54.4133895 90.9764843 23.8750877 73.3535613"></polygon>
                    <polygon id="Path-55" fill="#616AA4" points="21.9138544 87.1059793 52.3763755 104.803339 53.0579993 100.253241 22.526596 82.5598806"></polygon>
                    <polygon id="Path-56" fill="#616AA4" points="20.4657098 96.4517771 59.1646295 118.545097 59.8417624 114.079164 21.1686611 91.8566106"></polygon>
                    <polygon id="Path-57" fill="#616AA4" points="19.2529652 105.099395 49.7093024 122.914625 50.3823509 118.371129 19.8445876 100.816409"></polygon>
                    <polygon id="Path-58" fill="#616AA4" points="17.8546647 114.35618 56.6032222 136.715365 57.1888753 132.588326 18.5030646 109.937808"></polygon>
                    <polygon id="Path-59" fill="#616AA4" points="16.5155869 123.36068 38.8655385 136.295447 39.6025406 131.627892 17.1540188 118.937944"></polygon>
                    <polygon id="Path-60" fill="#252E63" points="71.6998253 164.019625 83.8475993 170.995213 84.5307913 166.287423 72.3338036 159.514255"></polygon>
                    <polygon id="Path-61" fill="#252E63" points="70.4558834 172.158432 82.6419489 179.166226 83.3164309 174.538585 71.1472146 167.605681"></polygon>
                    <polygon id="Path-62" fill="#888EB4" points="73.5811189 151.050528 85.6914443 158.272773 85.0504578 162.844893 72.8815758 155.685002"></polygon>
                    <polygon id="Path-63" fill="#888EB4" points="74.2468788 146.781539 86.433643 153.590139 87.0150997 149.310144 74.866389 142.419308"></polygon>
                    <polygon id="Path-64" fill="#888EB4" points="76.232343 133.185468 88.3621167 140.253005 87.7193617 144.678294 75.612927 137.483962"></polygon>
                    <polygon id="Path-65" fill="#888EB4" points="77.5664951 124.211607 89.6796805 131.165503 89.0321389 135.781368 76.920131 128.622685"></polygon>
                    <polygon id="Path-66" fill="#888EB4" points="78.9178745 114.995472 91.0201831 122.235303 90.3620157 126.680328 78.2626519 119.518288"></polygon>
                    <polygon id="Path-67" fill="#888EB4" points="80.2834499 105.744085 92.4232176 112.735739 91.7528338 117.393983 79.6437294 110.111377"></polygon>
                    <polygon id="Path-68" fill="#888EB4" points="81.6254054 96.7249654 93.7465861 103.853945 93.1209823 108.244577 80.9518686 101.293421"></polygon>
                    <polygon id="Path-69" fill="#888EB4" points="82.9721435 87.492413 95.1034619 94.707247 94.4285432 99.178522 82.2996679 92.0405094"></polygon>
                    <polygon id="Path-70" fill="#888EB4" points="84.3109547 78.5464132 96.4407364 85.6201356 95.7941733 89.9166263 83.6018926 83.1720128"></polygon>
                    <polygon id="Path-71" fill="#888EB4" points="85.6692521 69.3807721 97.7726879 76.4265154 97.0726975 81.2065934 84.9890999 74.0439115"></polygon>
                </g>
                <g id="Group-24" transform="translate(384.160000, 217.560000)">
                    <g id="coin" transform="translate(0.000000, 18.541600)">
                        <g id="Group">
                            <path d="M14.2750147,31.2877706 C21.0714569,31.2877706 26.5810619,24.4558604 26.5810619,16.0282721 C26.5810619,7.60068382 21.0714569,0.768773657 14.2750147,0.768773657 C13.4071058,0.768773657 12.5601818,0.880184432 11.7430366,1.09210172 C6.16126153,2.53967144 1.96896754,8.67689093 1.96896754,16.0282721 C1.96896754,24.4558604 7.47857251,31.2877706 14.2750147,31.2877706 Z" id="Oval" fill="#616AA4" fill-rule="nonzero"></path>
                            <rect id="Rectangle" fill="#A0B2D2" fill-rule="nonzero" x="11.8138053" y="0.768773657" width="2.46120943" height="30.5189969"></rect>
                            <ellipse id="Oval" fill="#CAD6EA" fill-rule="nonzero" cx="12.3060471" cy="16.0282721" rx="12.3060471" ry="15.2594985"></ellipse>
                            <path d="M26.4956147,15.7889005 C26.4956147,18.0066264 26.151336,20.0883662 25.4627787,22.03412 C24.7742213,23.9798737 23.9216549,25.6176708 22.9050795,26.9475114 C21.901462,28.3193583 20.4682193,29.4453672 18.6053513,30.3255382 C16.7424834,31.2057091 14.6142329,31.5578895 12.2206,31.3820792 L12.2206,0.919832916 C14.4149646,0.699465525 16.348266,0.951900437 18.020504,1.67713766 C19.692742,2.40237489 21.3209339,3.64091923 22.9050795,5.39277068 C23.9861246,6.67855558 24.838691,8.3093606 25.4627787,10.2851858 C26.0868663,12.261011 26.431145,14.0955826 26.4956147,15.7889005 Z" id="Rectangle" fill-opacity="0.532124126" fill="#3D4788" fill-rule="nonzero"></path>
                            <text id="$" fill="#252E63" font-family="Helvetica" font-size="24.6120943" font-weight="normal">
                                <tspan x="4.92241886" y="24">$</tspan>
                            </text>
                        </g>
                    </g>
                    <g id="coin" transform="translate(28.655200, 0.000000)">
                        <g id="Group">
                            <path d="M14.2750147,31.2877706 C21.0714569,31.2877706 26.5810619,24.4558604 26.5810619,16.0282721 C26.5810619,7.60068382 21.0714569,0.768773657 14.2750147,0.768773657 C13.4071058,0.768773657 12.5601818,0.880184432 11.7430366,1.09210172 C6.16126153,2.53967144 1.96896754,8.67689093 1.96896754,16.0282721 C1.96896754,24.4558604 7.47857251,31.2877706 14.2750147,31.2877706 Z" id="Oval" fill="#616AA4" fill-rule="nonzero"></path>
                            <rect id="Rectangle" fill="#A0B2D2" fill-rule="nonzero" x="11.8138053" y="0.768773657" width="2.46120943" height="30.5189969"></rect>
                            <ellipse id="Oval" fill="#CAD6EA" fill-rule="nonzero" cx="12.3060471" cy="16.0282721" rx="12.3060471" ry="15.2594985"></ellipse>
                            <path d="M26.4956147,15.7889005 C26.4956147,18.0066264 26.151336,20.0883662 25.4627787,22.03412 C24.7742213,23.9798737 23.9216549,25.6176708 22.9050795,26.9475114 C21.901462,28.3193583 20.4682193,29.4453672 18.6053513,30.3255382 C16.7424834,31.2057091 14.6142329,31.5578895 12.2206,31.3820792 L12.2206,0.919832916 C14.4149646,0.699465525 16.348266,0.951900437 18.020504,1.67713766 C19.692742,2.40237489 21.3209339,3.64091923 22.9050795,5.39277068 C23.9861246,6.67855558 24.838691,8.3093606 25.4627787,10.2851858 C26.0868663,12.261011 26.431145,14.0955826 26.4956147,15.7889005 Z" id="Rectangle" fill-opacity="0.532124126" fill="#3D4788" fill-rule="nonzero"></path>
                            <text id="$" fill="#252E63" font-family="Helvetica" font-size="24.6120943" font-weight="normal">
                                <tspan x="4.92241886" y="24">$</tspan>
                            </text>
                        </g>
                    </g>
                    <g id="coin" transform="translate(26.969600, 37.083200)">
                        <g id="Group">
                            <path d="M14.2750147,31.2877706 C21.0714569,31.2877706 26.5810619,24.4558604 26.5810619,16.0282721 C26.5810619,7.60068382 21.0714569,0.768773657 14.2750147,0.768773657 C13.4071058,0.768773657 12.5601818,0.880184432 11.7430366,1.09210172 C6.16126153,2.53967144 1.96896754,8.67689093 1.96896754,16.0282721 C1.96896754,24.4558604 7.47857251,31.2877706 14.2750147,31.2877706 Z" id="Oval" fill="#616AA4" fill-rule="nonzero"></path>
                            <rect id="Rectangle" fill="#A0B2D2" fill-rule="nonzero" x="11.8138053" y="0.768773657" width="2.46120943" height="30.5189969"></rect>
                            <ellipse id="Oval" fill="#CAD6EA" fill-rule="nonzero" cx="12.3060471" cy="16.0282721" rx="12.3060471" ry="15.2594985"></ellipse>
                            <path d="M26.4956147,15.7889005 C26.4956147,18.0066264 26.151336,20.0883662 25.4627787,22.03412 C24.7742213,23.9798737 23.9216549,25.6176708 22.9050795,26.9475114 C21.901462,28.3193583 20.4682193,29.4453672 18.6053513,30.3255382 C16.7424834,31.2057091 14.6142329,31.5578895 12.2206,31.3820792 L12.2206,0.919832916 C14.4149646,0.699465525 16.348266,0.951900437 18.020504,1.67713766 C19.692742,2.40237489 21.3209339,3.64091923 22.9050795,5.39277068 C23.9861246,6.67855558 24.838691,8.3093606 25.4627787,10.2851858 C26.0868663,12.261011 26.431145,14.0955826 26.4956147,15.7889005 Z" id="Rectangle" fill-opacity="0.532124126" fill="#3D4788" fill-rule="nonzero"></path>
                            <text id="$" fill="#252E63" font-family="Helvetica" font-size="24.6120943" font-weight="normal">
                                <tspan x="4.92241886" y="24">$</tspan>
                            </text>
                        </g>
                    </g>
                </g>
                <g id="Group-41" transform="translate(8.820000, 0.000000)">
                    <g id="Group-44" transform="translate(24.852800, 0.000000)">
                        <g id="Path-36">
                            <use fill="black" fill-opacity="1" filter="url(#filter-4)" xlink:href="#path-3"></use>
                            <use fill="#E1E6F2" fill-rule="evenodd" xlink:href="#path-3"></use>
                        </g>
                        <polygon id="Path-37" fill="#252E63" points="25.4514462 1.19769084e-14 23.7293957 12.1150102 254.5256 145.120346 256.127477 132.213959"></polygon>
                    </g>
                    <g id="Group-40" transform="translate(0.000000, 21.232251)">
                        <g id="Group-29">
                            <g id="Path-40">
                                <use fill="black" fill-opacity="1" filter="url(#filter-6)" xlink:href="#path-5"></use>
                                <use fill="#FFFFFF" fill-rule="evenodd" xlink:href="#path-5"></use>
                            </g>
                            <g id="Path-41">
                                <use fill="black" fill-opacity="1" filter="url(#filter-8)" xlink:href="#path-7"></use>
                                <use fill="#FFFFFF" fill-rule="evenodd" xlink:href="#path-7"></use>
                            </g>
                            <g id="Path-41">
                                <use fill="black" fill-opacity="1" filter="url(#filter-10)" xlink:href="#path-9"></use>
                                <use fill="#FFFFFF" fill-rule="evenodd" xlink:href="#path-9"></use>
                            </g>
                            <g id="Path-41">
                                <use fill="black" fill-opacity="1" filter="url(#filter-12)" xlink:href="#path-11"></use>
                                <use fill="#FFFFFF" fill-rule="evenodd" xlink:href="#path-11"></use>
                            </g>
                            <polyline id="Path-42" stroke="#3D4788" stroke-width="1.6856" stroke-linecap="round" points="28.5712564 37.7219594 23.5984 71.3451172 93.6986403 111.586138"></polyline>
                            <polygon id="Rectangle" fill="#3D4788" points="127.092928 76.8479212 222.091661 131.508883 221.42918 135.847427 126.42 81.2639739"></polygon>
                            <polygon id="Rectangle" fill="#3D4788" points="168.311884 119.373592 201.564365 138.498238 201.228608 140.58959 167.977369 121.43222"></polygon>
                            <path d="M146.705998,107.919552 L125.020525,96.2024386 L125.140409,95.5164397 L146.705998,107.919552 Z" id="Rectangle" stroke="#3D4788" stroke-width="1.6856"></path>
                            <polygon id="Rectangle" fill="#616AA4" points="218.757106 153.443175 218.4419 155.563657 167.427647 126.174597 167.754684 124.101889"></polygon>
                            <path d="M162.175587,121.87356 L124.738087,101.094765 L124.837703,100.407613 L162.175587,121.87356 Z" id="Rectangle" stroke="#616AA4" stroke-width="1.6856"></path>
                            <polygon id="Rectangle" fill="#616AA4" points="218.053469 158.095289 217.749105 160.22131 166.739804 130.821208 167.066268 128.752619"></polygon>
                            <path d="M161.480709,126.530822 L124.030807,105.741554 L124.130574,105.066006 L161.480709,126.530822 Z" id="Rectangle" stroke="#616AA4" stroke-width="1.6856"></path>
                            <polygon id="Rectangle" fill="#616AA4" points="217.388985 162.769922 217.012811 164.853901 166.049784 135.414609 166.357089 133.399585"></polygon>
                            <path d="M160.773148,131.180118 L123.317863,110.39346 L123.426899,109.676731 L160.773148,131.180118 Z" id="Rectangle" stroke="#616AA4" stroke-width="1.6856"></path>
                            <path d="M160.098568,135.849757 L122.611515,115.015708 L122.710862,114.382774 L160.098568,135.849757 Z" id="Rectangle" stroke="#616AA4" stroke-width="1.6856"></path>
                            <path d="M53.6418398,141.835144 L45.8054357,137.870527 L45.8736845,137.370849 L53.6418398,141.835144 Z" id="Rectangle" stroke="#616AA4" stroke-width="1.6856"></path>
                            <path d="M67.5642993,149.836267 L61.3488029,146.671819 L61.4117914,146.300471 L67.5642993,149.836267 Z" id="Rectangle" stroke="#888EB4" stroke-width="1.6856"></path>
                            <path d="M66.8671012,154.490565 L57.5128571,149.564657 L57.5823969,149.144577 L66.8671012,154.490565 Z" id="Rectangle" stroke="#888EB4" stroke-width="1.6856"></path>
                            <path d="M52.9194342,146.451099 L45.0993682,142.562776 L45.1902678,141.99616 L52.9194342,146.451099 Z" id="Rectangle" stroke="#616AA4" stroke-width="1.6856"></path>
                            <path d="M52.2291534,151.144233 L44.428718,147.219216 L44.5101839,146.712215 L52.2291534,151.144233 Z" id="Rectangle" stroke="#616AA4" stroke-width="1.6856"></path>
                            <path d="M66.157661,159.141595 L61.4806523,156.853571 L61.536509,156.488258 L66.157661,159.141595 Z" id="Rectangle" stroke="#888EB4" stroke-width="1.6856"></path>
                            <polygon id="Path-44" fill="#888EB4" points="36.6736477 77.9036287 41.0889513 48.1362655 33.0294694 43.4090578 28.7797916 73.4474552"></polygon>
                            <polygon id="Path-44" fill="#888EB4" points="46.9013279 83.7889184 49.9545155 63.3729771 41.9339523 58.697974 39.0192514 79.3002284"></polygon>
                            <polygon id="Path-44" fill="#888EB4" points="57.1901289 89.7033699 59.4562408 73.8230571 51.5081633 69.2529878 49.2632388 85.1209989"></polygon>
                            <polygon id="Path-44" fill="#888EB4" points="67.4998964 95.5632353 70.877505 71.8140458 62.8414844 67.266513 59.5004187 90.9898875"></polygon>
                            <polygon id="Path-44" fill="#888EB4" points="77.6836676 101.447737 82.5110327 70.2052859 74.4152827 65.4806613 69.8149965 96.9325443"></polygon>
                            <polygon id="Path-44" fill="#888EB4" points="88.1460856 107.429325 92.4003473 77.5447842 84.4219716 72.9787511 80.1896022 102.894806"></polygon>
                            <polygon id="Path-46" fill="#252E63" points="144.524343 136.289824 159.738344 144.946002 158.995292 149.673295 143.93305 141.037786"></polygon>
                            <polygon id="Path-47" fill="#252E63" points="213.998635 176.095809 213.288542 180.927145 198.078375 172.101753 198.865367 167.503267"></polygon>
                            <path d="M21.4446936,116.657562 C28.8004526,115.492524 35.991258,122.300001 37.5058071,131.862488 C39.0203562,141.424974 34.28512,150.121351 26.9293611,151.286389 C19.5736021,152.451427 12.3827967,145.643949 10.8682476,136.081463 C9.35369851,126.518976 14.0889347,117.822599 21.4446936,116.657562 Z M22.2357514,121.652104 C16.7189322,122.525882 13.1320882,128.824552 14.2243111,135.720576 C15.316534,142.6166 20.6742212,147.498594 26.1910404,146.624816 C31.7078596,145.751038 35.2947036,139.452368 34.2024807,132.556344 C33.1102578,125.66032 27.7525706,120.778326 22.2357514,121.652104 Z" id="Combined-Shape" fill="#616AA4"></path>
                            <path d="M95.6110936,158.797562 C102.966853,157.632524 110.157658,164.440001 111.672207,174.002488 C113.186756,183.564974 108.45152,192.261351 101.095761,193.426389 C93.7400021,194.591427 86.5491967,187.783949 85.0346476,178.221463 C83.5200985,168.658976 88.2553347,159.962599 95.6110936,158.797562 Z M96.4021514,163.792104 C90.8853322,164.665882 87.2984882,170.964552 88.3907111,177.860576 C89.482934,184.7566 94.8406212,189.638594 100.35744,188.764816 C105.87426,187.891038 109.461104,181.592368 108.368881,174.696344 C107.276658,167.80032 101.918971,162.918326 96.4021514,163.792104 Z" id="Combined-Shape" fill="#616AA4"></path>
                            <polygon id="Path-38" fill="#3D4788" points="46.0448046 130.201847 45.7808861 132.04007 69.2045934 145.464448 69.4580715 143.635332"></polygon>
                            <polygon id="Path-48" fill="#3D4788" points="118.983628 174.083737 119.251623 172.27511 142.624879 185.69732 142.300457 187.492058"></polygon>
                            <polygon id="Path-49" fill="#252E63" points="41.497253 162.997203 41.986478 158.98863 64.9282629 172.146322 64.4546229 176.414149"></polygon>
                            <path d="M126.12264,185.660744 L118.286236,181.696127 L118.354484,181.196449 L126.12264,185.660744 Z" id="Rectangle" stroke="#616AA4" stroke-width="1.6856"></path>
                            <path d="M140.045099,193.661867 L133.829603,190.497419 L133.892591,190.126071 L140.045099,193.661867 Z" id="Rectangle" stroke="#888EB4" stroke-width="1.6856"></path>
                            <path d="M139.347901,198.316165 L129.993657,193.390257 L130.063197,192.970177 L139.347901,198.316165 Z" id="Rectangle" stroke="#888EB4" stroke-width="1.6856"></path>
                            <path d="M125.400234,190.276699 L117.580168,186.388376 L117.671068,185.82176 L125.400234,190.276699 Z" id="Rectangle" stroke="#616AA4" stroke-width="1.6856"></path>
                            <path d="M124.709953,194.969833 L116.909518,191.044816 L116.990984,190.537815 L124.709953,194.969833 Z" id="Rectangle" stroke="#616AA4" stroke-width="1.6856"></path>
                            <path d="M138.638461,202.967195 L133.961452,200.679171 L134.017309,200.313858 L138.638461,202.967195 Z" id="Rectangle" stroke="#888EB4" stroke-width="1.6856"></path>
                            <polygon id="Path-49" fill="#252E63" points="113.978053 206.822803 114.467278 202.81423 137.409063 215.971922 136.935423 220.239749"></polygon>
                            <g id="Group-24" transform="translate(191.259369, 230.392011) rotate(41.000000) translate(-191.259369, -230.392011) translate(170.759369, 209.892011)" stroke="#496795" stroke-width="1.96">
                                <g id="Group-35" transform="translate(0.249057, 0.343154)">
                                    <polyline id="Path-8" stroke-linejoin="round" points="-6.19733132e-13 39.4187665 7.59357396 25.1491825 13.6715852 30.0630362 22.2611294 13.9231316 28.9639735 18.1151403 39.1504256 3.58157459e-13 39.8718557 5.13206269"></polyline>
                                    <line x1="39.2374587" y1="4.11981684e-13" x2="34.9957522" y2="1.35926781" id="Path-9"></line>
                                </g>
                            </g>
                        </g>
                        <polygon id="Rectangle" fill="#616AA4" points="168.311884 139.600792 216.630434 167.390453 216.32412 169.513919 167.977369 141.65942 165.357263 140.066015 165.651331 138.045749"></polygon>
                    </g>
                </g>
                <polygon id="Path-73" fill="#252E63" points="168.634969 346.678001 188.816313 334.845904 105.948126 286.41074 85.7410145 298.172042"></polygon>
            </g>
        </g>
    </g>
</svg>