<?xml version="1.0" encoding="UTF-8"?>
<svg width="196px" height="200px" viewBox="0 0 196 200" version="1.1" xmlns="http://www.w3.org/2000/svg" xmlns:xlink="http://www.w3.org/1999/xlink">
    <!-- Generator: Sketch 62 (91390) - https://sketch.com -->
    <title>Group 62</title>
    <desc>Created with Sketch.</desc>
    <g id="Page-1" stroke="none" stroke-width="1" fill="none" fill-rule="evenodd">
        <g id="1-copy-14" transform="translate(-123.000000, -1709.000000)">
            <g id="Group-62" transform="translate(123.000000, 1709.000000)">
                <rect id="Rectangle" fill="#2CA9AF" x="20.8757396" y="19.7674419" width="119.455621" height="36.0465116"></rect>
                <path d="M191.360947,55.8139535 L191.360947,200 L4.63905325,200 L4.63905325,55.8139535 L191.360947,55.8139535 Z M30.2611059,74.4186047 L30.4344341,97.6744186 L146.130178,97.6744186 L146.130178,74.4650383 L30.2611059,74.4186047 Z" id="Combined-Shape" fill="#2CA9AF"></path>
                <g id="Rectangle-2" transform="translate(23.195266, 154.651163)" fill="#D5F6F8">
                    <rect id="Rectangle" x="0" y="0" width="49.8698225" height="45.3488372"></rect>
                </g>
                <g id="Rectangle-2" transform="translate(75.384615, 154.651163)" fill="#D5F6F8">
                    <rect id="Rectangle" x="0" y="0" width="49.8698225" height="45.3488372"></rect>
                </g>
                <g id="Rectangle-2" transform="translate(151.928994, 154.651163)" fill="#D5F6F8">
                    <rect id="Rectangle" x="0" y="0" width="33.6331361" height="45.3488372"></rect>
                </g>
                <rect id="Rectangle" fill="#005D62" x="0" y="145.348837" width="146.130178" height="5.81395349"></rect>
                <rect id="Rectangle" fill="#005D62" x="0" y="120.930233" width="196" height="5.81395349"></rect>
                <rect id="Rectangle" fill="#005D62" x="0" y="55.8139535" width="194.840237" height="8.13953488"></rect>
                <rect id="Rectangle" fill="#005D62" x="17.3964497" y="19.7674419" width="125.254438" height="6.97674419"></rect>
                <rect id="Rectangle" fill="#70C1C5" x="12.7573964" y="151.162791" width="5.79881657" height="48.8372093"></rect>
                <rect id="Rectangle" fill="#2B999E" opacity="0.507719494" x="15.0769231" y="151.162791" width="3.47928994" height="48.8372093"></rect>
                <rect id="Rectangle" fill="#70C1C5" x="129.893491" y="151.162791" width="5.79881657" height="48.8372093"></rect>
                <rect id="Rectangle" fill="#10969F" x="146.130178" y="37.2093023" width="38.2721893" height="18.6046512"></rect>
                <rect id="Rectangle" fill="#D5F6F8" x="25.5147929" y="32.5581395" width="111.337278" height="18.6046512"></rect>
                <rect id="Rectangle" fill="#D5F6F8" x="10.4378698" y="129.069767" width="176.284024" height="11.627907"></rect>
                <rect id="Rectangle-Copy" fill="#2B999E" opacity="0.507719494" x="132.213018" y="151.162791" width="3.47928994" height="48.8372093"></rect>
                <rect id="Rectangle" fill="#005D62" x="40.591716" y="0" width="4.63905325" height="19.7674419"></rect>
                <rect id="Rectangle" fill="#005D62" x="31.3136095" y="0" width="4.63905325" height="19.7674419"></rect>
                <path d="M169.325444,68.6046512 L169.325444,116.27907 L12.7573964,116.27907 L12.7573964,68.6046512 L169.325444,68.6046512 Z M146.597824,74.4186047 L30.4344341,74.4186047 L30.4344341,97.6744186 L146.597824,97.6744186 L146.597824,74.4186047 Z" id="Combined-Shape" fill="#E2EEEF"></path>
                <path d="M153.088757,68.6046512 L153.088757,106.976744 L24.3550296,106.976744 L24.3550296,68.6046512 L153.088757,68.6046512 Z M146.130178,74.4186047 L30.4880616,74.4650383 L30.4880616,97.9065869 L146.130178,97.6621787 L146.130178,74.4186047 Z" id="Combined-Shape" fill="#D7E3E4"></path>
                <rect id="Rectangle" stroke="#A9BBBC" stroke-width="0.579999983" x="30.4438461" y="74.7086046" width="115.396331" height="22.675814"></rect>
                <polygon id="Rectangle" fill="#BFD6D8" points="24.3001389 106.976744 153.060381 106.976744 169.325444 116.27907 12.7573964 116.27907"></polygon>
                <g id="Group-6" transform="translate(80.603550, 101.744186) scale(-1, 1) translate(-80.603550, -101.744186) translate(73.065089, 90.697674)">
                    <ellipse id="Oval" fill="#AEC8CA" cx="7.41951146" cy="19.7307222" rx="6.17053558" ry="1.12607099"></ellipse>
                    <g id="Group-5">
                        <path d="M7.99232388,12.6682987 L7.99138454,18.1832987 L12.1662848,18.4611565 C12.4742922,18.481546 12.7074527,18.7477643 12.6870632,19.0557717 L12.6867656,19.0600217 L9.67438454,18.8608947 L11.976938,19.6111058 C12.2645218,19.7048484 12.4216611,20.0139746 12.3279185,20.3015585 L12.321896,20.3190284 L11.8671557,20.1707984 L11.7901193,20.1456871 L8.14038454,18.9548947 L8.14101149,20.675697 C8.14101149,20.8399328 8.00787207,20.9730722 7.84363628,20.9730722 C7.67940049,20.9730722 7.54626107,20.8399328 7.54626107,20.675697 L7.54538454,18.8628947 L3.13057713,20.3025876 L3.12749219,20.293878 C3.04047997,20.0271682 3.15906159,19.750105 3.39329665,19.629021 L3.47553509,19.5946649 L5.69638454,18.8698947 L3.08792302,19.0435808 C3.06930464,18.7625491 3.25630274,18.5188092 3.51842595,18.4580076 L3.60840377,18.4447157 L7.69438454,18.1732987 L7.69494867,12.6682987 L7.99232388,12.6682987 Z" id="Combined-Shape" fill="#1B1A1A"></path>
                        <rect id="Rectangle" fill="#1A9199" x="3.38300815" y="7.88249694" width="7.73175542" height="1" rx="0.417599988"></rect>
                        <polygon id="Rectangle" fill="#3A3A3A" points="6.50544784 12.246022 9.11490349 12.246022 8.5870743 14.3156622 7.05564574 14.3156622"></polygon>
                        <path d="M4.08817114,13.5128519 C4.05841445,12.9919925 4.11812367,12.6612442 4.26729883,12.5206068 C4.41647399,12.3799694 4.76660351,12.3069897 5.3176874,12.3016677 L13.8189876,12.4047141 C14.084029,12.4047141 14.2703313,12.337536 14.3778943,12.2031797 C14.4854574,12.0688234 14.5232066,11.8712947 14.491142,11.6105938 C13.6910292,9.16931103 13.3789752,7.00882485 13.5549802,5.12913524 C13.7240068,3.32397241 14.0596732,1.67557593 14.5619793,0.18394579 C14.5868755,0.111022238 14.5476115,0.0318874686 14.4745854,0.0072959289 C14.4602372,0.0024641924 14.4451983,1.85475294e-16 14.4300584,0 L8.23598812,0 C8.15912204,2.16338621e-05 8.09680976,0.0623339091 8.09680976,0.139199996 C8.09680976,0.149714863 8.09800134,0.160195863 8.10036169,0.170442383 C8.63195502,2.478144 8.92738565,4.02722875 8.9866536,4.81769662 C9.07300565,5.96939028 9.31883892,7.54020917 9.11286923,8.71886947 C8.9578465,9.60598615 8.51869941,10.2462229 8.27982731,10.4970273 C8.05874554,10.7291527 7.69379889,10.9125004 7.18498736,11.0470703 L7.18498736,11.0470703 L0.618776391,11.0470703 C0.4389183,11.0470902 0.270137729,11.1339723 0.165631108,11.280353 C0.0812210443,11.3985847 0.0298179294,11.508665 0.0114217629,11.6105938 C-0.0185696512,11.7767691 0.0105028196,12.0801068 0.0986391753,12.5206068 L4.08817114,13.5128519 Z" id="Path-2" fill="#26B2BA"></path>
                        <rect id="Rectangle" fill="#21A9B2" x="7.24888586" y="8.44553244" width="7.73175542" height="1" rx="0.417599988"></rect>
                        <path d="M0.599601146,11.0437503 L7.24888586,11.1083531 C7.27342369,11.1083531 7.4221113,11.0601252 7.69494867,10.9636693 L14.3631001,11.9645043 C14.3444505,12.1045566 14.3125632,12.1983959 14.2674382,12.246022 C14.2223132,12.2936482 14.1250145,12.3361553 13.9755421,12.3735436 L4.97101282,12.246022 C4.62174423,12.3109609 4.39444699,12.3798588 4.2891211,12.4527157 C4.18379521,12.5255726 4.09829211,12.8601308 4.03261179,13.4563902 L0.0986391753,12.5206068 C0.0262742094,11.8466244 0.0235956411,11.4581842 0.0906034705,11.3552862 C0.1576113,11.2523883 0.327277192,11.148543 0.599601146,11.0437503 Z" id="Rectangle" fill-opacity="0.567963287" fill="#1FA4AC"></path>
                    </g>
                </g>
                <g id="Group-9" transform="translate(49.869822, 89.534884)">
                    <polygon id="Rectangle" fill="#AEC8CA" points="0.448717949 21.8176255 28.9751753 21.8176255 29.6153846 23.5039928 -6.39488462e-14 23.5039928"></polygon>
                    <rect id="Rectangle" fill="#FFFFFF" x="0.897435897" y="10.1346389" width="26.9230769" height="1.68910649"></rect>
                    <polygon id="Rectangle" fill="#FFFFFF" transform="translate(3.589744, 16.891065) rotate(11.000000) translate(-3.589744, -16.891065) " points="2.80659683 11.2530225 4.5545898 10.9558096 4.36970989 22.529648 2.62489738 22.8263202"></polygon>
                    <polygon id="Rectangle" fill="#FFFFFF" transform="translate(26.025641, 16.891065) scale(-1, 1) rotate(11.000000) translate(-26.025641, -16.891065) " points="25.2424943 11.2530225 26.9904872 10.9558096 26.8056073 22.529648 25.0607948 22.8263202"></polygon>
                    <rect id="Rectangle" fill="#3A3A3A" x="7.17948718" y="-4.08562073e-14" width="15.2564103" height="7.60097919"></rect>
                    <path d="" id="Combined-Shape" stroke="#1B1A1A" stroke-width="0.835199976" fill="#D8D8D8"></path>
                    <polygon id="Rectangle" fill="#E5E5E5" points="3.73931624 11.8237454 5.53418803 11.8237454 5.38038586 12.6682987 3.58974359 12.6682987"></polygon>
                    <polygon id="Rectangle" fill="#E5E5E5" transform="translate(25.053419, 12.246022) scale(-1, 1) translate(-25.053419, -12.246022) " points="24.2307692 11.8237454 26.025641 11.8237454 25.8718389 12.6682987 24.0811966 12.6682987"></polygon>
                </g>
                <g id="Group" transform="translate(99.739645, 88.372093)">
                    <polygon id="Rectangle" fill="#AEC8CA" points="0.448717949 21.8176255 28.9751753 21.8176255 29.6153846 23.5039928 0 23.5039928"></polygon>
                    <rect id="Rectangle" fill="#FFFFFF" x="0.897435897" y="10.1346389" width="26.9230769" height="1.68910649"></rect>
                    <polygon id="Rectangle" fill="#FFFFFF" transform="translate(3.589744, 16.891065) rotate(11.000000) translate(-3.589744, -16.891065) " points="2.80659683 11.2530225 4.5545898 10.9558096 4.36970989 22.529648 2.62489738 22.8263202"></polygon>
                    <polygon id="Rectangle" fill="#FFFFFF" transform="translate(26.025641, 16.891065) scale(-1, 1) rotate(11.000000) translate(-26.025641, -16.891065) " points="25.2424943 11.2530225 26.9904872 10.9558096 26.8056073 22.529648 25.0607948 22.8263202"></polygon>
                    <polygon id="Rectangle" fill="#E5E5E5" points="3.73931624 11.8237454 5.53418803 11.8237454 5.38038586 12.6682987 3.58974359 12.6682987"></polygon>
                    <polygon id="Rectangle" fill="#E5E5E5" transform="translate(25.053419, 12.246022) scale(-1, 1) translate(-25.053419, -12.246022) " points="24.2307692 11.8237454 26.025641 11.8237454 25.8718389 12.6682987 24.0811966 12.6682987"></polygon>
                    <g id="Group-4" transform="translate(6.581197, 0.000000)" stroke-width="0.835199976">
                        <rect id="Rectangle" stroke="#3A3A3A" fill="#FFFFFF" x="0.417599988" y="0.417599988" width="14.4212103" height="6.76577922"></rect>
                        <rect id="Rectangle" stroke="#1B1A1A" fill="#D8D8D8" x="7.59708717" y="8.01857918" width="1" height="1.69845975"></rect>
                        <path d="" id="Rectangle" stroke="#1B1A1A" fill="#D8D8D8"></path>
                    </g>
                </g>
                <g id="Group-6" transform="translate(115.976331, 93.023256)">
                    <ellipse id="Oval" fill="#AEC8CA" cx="7.41951146" cy="19.7307222" rx="6.17053558" ry="1.12607099"></ellipse>
                    <g id="Group-5">
                        <path d="M7.99232388,12.6682987 L7.99138454,18.1832987 L12.1662848,18.4611565 C12.4742922,18.481546 12.7074527,18.7477643 12.6870632,19.0557717 L12.6867656,19.0600217 L9.67438454,18.8608947 L11.976938,19.6111058 C12.2645218,19.7048484 12.4216611,20.0139746 12.3279185,20.3015585 L12.321896,20.3190284 L11.8671557,20.1707984 L11.7901193,20.1456871 L8.14038454,18.9548947 L8.14101149,20.675697 C8.14101149,20.8399328 8.00787207,20.9730722 7.84363628,20.9730722 C7.67940049,20.9730722 7.54626107,20.8399328 7.54626107,20.675697 L7.54538454,18.8628947 L3.13057713,20.3025876 L3.12749219,20.293878 C3.04047997,20.0271682 3.15906159,19.750105 3.39329665,19.629021 L3.47553509,19.5946649 L5.69638454,18.8698947 L3.08792302,19.0435808 C3.06930464,18.7625491 3.25630274,18.5188092 3.51842595,18.4580076 L3.60840377,18.4447157 L7.69438454,18.1732987 L7.69494867,12.6682987 L7.99232388,12.6682987 Z" id="Combined-Shape" fill="#1B1A1A"></path>
                        <rect id="Rectangle" fill="#1A9199" x="3.38300815" y="7.88249694" width="7.73175542" height="1" rx="0.417599988"></rect>
                        <polygon id="Rectangle" fill="#3A3A3A" points="6.50544784 12.246022 9.11490349 12.246022 8.5870743 14.3156622 7.05564574 14.3156622"></polygon>
                        <path d="M4.08817114,13.5128519 C4.05841445,12.9919925 4.11812367,12.6612442 4.26729883,12.5206068 C4.41647399,12.3799694 4.76660351,12.3069897 5.3176874,12.3016677 L13.8189876,12.4047141 C14.084029,12.4047141 14.2703313,12.337536 14.3778943,12.2031797 C14.4854574,12.0688234 14.5232066,11.8712947 14.491142,11.6105938 C13.6910292,9.16931103 13.3789752,7.00882485 13.5549802,5.12913524 C13.7240068,3.32397241 14.0596732,1.67557593 14.5619793,0.18394579 C14.5868755,0.111022238 14.5476115,0.0318874686 14.4745854,0.0072959289 C14.4602372,0.0024641924 14.4451983,1.85475294e-16 14.4300584,0 L8.23598812,0 C8.15912204,2.16338621e-05 8.09680976,0.0623339091 8.09680976,0.139199996 C8.09680976,0.149714863 8.09800134,0.160195863 8.10036169,0.170442383 C8.63195502,2.478144 8.92738565,4.02722875 8.9866536,4.81769662 C9.07300565,5.96939028 9.31883892,7.54020917 9.11286923,8.71886947 C8.9578465,9.60598615 8.51869941,10.2462229 8.27982731,10.4970273 C8.05874554,10.7291527 7.69379889,10.9125004 7.18498736,11.0470703 L7.18498736,11.0470703 L0.618776391,11.0470703 C0.4389183,11.0470902 0.270137729,11.1339723 0.165631108,11.280353 C0.0812210443,11.3985847 0.0298179294,11.508665 0.0114217629,11.6105938 C-0.0185696512,11.7767691 0.0105028196,12.0801068 0.0986391753,12.5206068 L4.08817114,13.5128519 Z" id="Path-2" fill="#26B2BA"></path>
                        <rect id="Rectangle" fill="#21A9B2" x="7.24888586" y="8.44553244" width="7.73175542" height="1" rx="0.417599988"></rect>
                        <path d="M0.599601146,11.0437503 L7.24888586,11.1083531 C7.27342369,11.1083531 7.4221113,11.0601252 7.69494867,10.9636693 L14.3631001,11.9645043 C14.3444505,12.1045566 14.3125632,12.1983959 14.2674382,12.246022 C14.2223132,12.2936482 14.1250145,12.3361553 13.9755421,12.3735436 L4.97101282,12.246022 C4.62174423,12.3109609 4.39444699,12.3798588 4.2891211,12.4527157 C4.18379521,12.5255726 4.09829211,12.8601308 4.03261179,13.4563902 L0.0986391753,12.5206068 C0.0262742094,11.8466244 0.0235956411,11.4581842 0.0906034705,11.3552862 C0.1576113,11.2523883 0.327277192,11.148543 0.599601146,11.0437503 Z" id="Rectangle" fill-opacity="0.567963287" fill="#1FA4AC"></path>
                    </g>
                </g>
                <g id="Group-11-Copy" transform="translate(25.514793, 86.046512)">
                    <path d="M9.1875511,0.709843158 L9.20450133,0.709843158 C9.28522326,0.709843158 9.35066132,0.775281217 9.35066132,0.856003153 L9.35066132,16.8942672 L9.35066132,16.8942672 L9.04139111,16.8942672 L9.04139111,0.856003153 C9.04139111,0.775281217 9.10682916,0.709843158 9.1875511,0.709843158 Z" id="Rectangle" fill="#05ACB6"></path>
                    <path d="M4.87198677,16.4539635 C7.33132099,16.5106851 9.15998903,15.6354079 9.29844403,15.4837817 C9.43689903,15.3321556 7.27819846,14.3649144 4.81886424,14.3081928 C2.35953003,14.2514712 1.41911223,15.4458738 0.392406991,15.2783746 C-0.634298247,15.1108754 2.41265256,16.3972419 4.87198677,16.4539635 Z" id="Oval" fill="#05ACB6" transform="translate(4.746289, 15.381417) rotate(-17.000000) translate(-4.746289, -15.381417) "></path>
                    <path d="M13.8958239,15.6769045 C16.3551581,15.7336262 18.1838261,14.8583489 18.3222811,14.7067228 C18.4607361,14.5550966 16.3020356,13.5878555 13.8427014,13.5311339 C11.3833671,13.4744123 10.4429493,14.6688149 9.4162441,14.5013157 C8.38953886,14.3338164 11.4364897,15.6201829 13.8958239,15.6769045 Z" id="Oval" fill="#05ACB6" transform="translate(13.770126, 14.604358) scale(-1, 1) rotate(-17.000000) translate(-13.770126, -14.604358) "></path>
                    <path d="M4.87198677,13.0467163 C7.33132099,13.1034379 9.15998903,12.2281607 9.29844403,12.0765346 C9.43689903,11.9249084 7.27819846,10.9576673 4.81886424,10.9009457 C2.35953003,10.8442241 1.41911223,12.0386267 0.392406991,11.8711274 C-0.634298247,11.7036282 2.41265256,12.9899947 4.87198677,13.0467163 Z" id="Oval" fill="#05ACB6" transform="translate(4.746289, 11.974170) rotate(-17.000000) translate(-4.746289, -11.974170) "></path>
                    <path d="M13.8958239,12.2696574 C16.3551581,12.326379 18.1838261,11.4511018 18.3222811,11.2994756 C18.4607361,11.1478495 16.3020356,10.1806083 13.8427014,10.1238867 C11.3833671,10.0671651 10.4429493,11.2615677 9.4162441,11.0940685 C8.38953886,10.9265693 11.4364897,12.2129358 13.8958239,12.2696574 Z" id="Oval" fill="#05ACB6" transform="translate(13.770126, 11.197111) scale(-1, 1) rotate(-17.000000) translate(-13.770126, -11.197111) "></path>
                    <path d="M4.87198677,10.0653751 C7.33132099,10.1220967 9.15998903,9.24681944 9.29844403,9.09519329 C9.43689903,8.94356714 7.27819846,7.97632601 4.81886424,7.91960441 C2.35953003,7.8628828 1.41911223,9.05728542 0.392406991,8.88978618 C-0.634298247,8.72228694 2.41265256,10.0086535 4.87198677,10.0653751 Z" id="Oval" fill="#05ACB6" transform="translate(4.746289, 8.992828) rotate(-17.000000) translate(-4.746289, -8.992828) "></path>
                    <path d="M13.8958239,9.28831612 C16.3551581,9.34503773 18.1838261,8.46976049 18.3222811,8.31813434 C18.4607361,8.16650819 16.3020356,7.19926706 13.8427014,7.14254545 C11.3833671,7.08582385 10.4429493,8.28022647 9.4162441,8.11272723 C8.38953886,7.94522799 11.4364897,9.23159451 13.8958239,9.28831612 Z" id="Oval" fill="#05ACB6" transform="translate(13.770126, 8.215770) scale(-1, 1) rotate(-17.000000) translate(-13.770126, -8.215770) "></path>
                    <path d="M5.58673847,6.39685576 C7.57481845,6.44270845 9.05327011,5.74284455 9.1652267,5.62157114 C9.27718329,5.50029772 7.53232043,4.72609192 5.54424045,4.68023923 C3.55616047,4.63438654 2.79569176,5.58972102 1.96575222,5.45552385 C1.13581269,5.32132668 3.59865849,6.35100307 5.58673847,6.39685576 Z" id="Oval" fill="#05ACB6" transform="translate(5.485350, 5.538824) rotate(-17.000000) translate(-5.485350, -5.538824) "></path>
                    <path d="M12.8534556,5.6870126 C14.8415356,5.73286529 16.3199873,5.03300139 16.4319438,4.91172798 C16.5439004,4.79045456 14.7990376,4.01624876 12.8109576,3.97039607 C10.8228776,3.92454338 10.0624089,4.87987786 9.23246937,4.74568069 C8.40252983,4.61148352 10.8653756,5.64115991 12.8534556,5.6870126 Z" id="Oval" fill="#05ACB6" transform="translate(12.752067, 4.828981) scale(-1, 1) rotate(-17.000000) translate(-12.752067, -4.828981) "></path>
                    <path d="M6.48906041,2.7036045 C7.98012039,2.73799402 9.08895914,2.2130961 9.17292658,2.12214104 C9.25689402,2.03118597 7.94824688,1.45053162 6.45718689,1.4161421 C4.9661269,1.38175259 4.39577537,2.09825345 3.77332072,1.99760557 C3.15086607,1.89695769 4.99800042,2.66921498 6.48906041,2.7036045 Z" id="Oval" fill="#05ACB6" transform="translate(6.413019, 2.060081) rotate(-17.000000) translate(-6.413019, -2.060081) "></path>
                    <path d="M11.9004395,2.13572998 C13.3914995,2.17011949 14.5003382,1.64522157 14.5843057,1.55426651 C14.6682731,1.46331145 13.359626,0.882657096 11.868566,0.848267578 C10.377506,0.813878059 9.80715445,1.53037892 9.1846998,1.42973104 C8.56224515,1.32908317 10.4093795,2.10134046 11.9004395,2.13572998 Z" id="Oval" fill="#05ACB6" transform="translate(11.824398, 1.492206) scale(-1, 1) rotate(-17.000000) translate(-11.824398, -1.492206) "></path>
                    <path d="M4.98645995,16.8942672 L13.3937795,16.8942672 C13.7166672,16.8942672 13.9784194,17.1560194 13.9784194,17.4789072 C13.9784194,17.5271581 13.9724462,17.5752235 13.9606361,17.6220068 L12.3563388,23.9770643 C12.2907976,24.2366907 12.0572535,24.4186047 11.7894822,24.4186047 L6.486976,24.4186047 C6.21584258,24.4186047 5.98028667,24.2321897 5.91798155,23.968312 L4.4174655,17.6132545 C4.34326749,17.2990076 4.53786561,16.9841107 4.85211257,16.9099127 C4.89613893,16.8995175 4.94122301,16.8942672 4.98645995,16.8942672 Z" id="Rectangle" fill="#2A959C"></path>
                    <path d="M9.19602621,16.8942672 L13.4742554,16.8942672 C13.6842683,16.9232841 13.8253289,16.9844171 13.8974371,17.0776661 C13.9695453,17.170915 14.0055995,17.2966787 14.0055995,17.454957 L12.3612135,23.822635 C12.3272288,24.0176107 12.2770456,24.1519094 12.210664,24.2255312 C12.1442824,24.2991529 12.0153453,24.3635107 11.8238527,24.4186047 L9.19602621,24.4186047 L9.19602621,16.8942672 Z" id="Rectangle" fill="#26858B"></path>
                </g>
                <polygon id="Rectangle" fill-opacity="0.24571132" fill="#318C90" points="73.0650888 19.7674419 142.650888 19.7674419 142.650888 26.744186 140.331361 26.744186 140.331361 55.8139535 146.130178 55.8139535 146.130178 37.2093023 184.402367 37.2093023 184.402367 55.8139535 194.840237 55.8139535 194.840237 63.9534884 191.360947 63.9534884 191.360947 102.333497 191.360947 120.930233 196 120.930233 196 126.744186 191.360947 126.744186 191.360947 200 73.0650888 200 73.0650888 97.3689316 146.130178 97.2399021 146.130178 74.4186047 73.0650888 74.5315734"></polygon>
            </g>
        </g>
    </g>
</svg>