<?xml version="1.0" encoding="UTF-8"?>
<svg width="148px" height="246px" viewBox="0 0 148 246" version="1.1" xmlns="http://www.w3.org/2000/svg" xmlns:xlink="http://www.w3.org/1999/xlink">
    <!-- Generator: Sketch 62 (91390) - https://sketch.com -->
    <title>Group 61</title>
    <desc>Created with Sketch.</desc>
    <g id="Page-1" stroke="none" stroke-width="1" fill="none" fill-rule="evenodd">
        <g id="1-copy-14" transform="translate(-337.000000, -1663.000000)">
            <g id="Group-61" transform="translate(337.000000, 1663.000000)">
                <path d="M148,51.0566038 L148,246 L0,246 L0,51.0566038 L148,51.0566038 Z M124.875,135.764151 L18.5,135.764151 L18.5,158.971698 L124.875,158.971698 L124.875,135.764151 Z" id="Combined-Shape" fill="#70C1C5"></path>
                <rect id="Rectangle" fill="#70C1C5" x="18.5" y="97.4716981" width="106.375" height="15.0849057"></rect>
                <rect id="Rectangle-Copy-7" fill="#005D62" x="0" y="51.0566038" width="148" height="11.6037736"></rect>
                <g id="Group-8-Copy" transform="translate(0.000000, 70.783019)">
                    <rect id="Rectangle-Copy-4" fill="#26B2BA" x="0" y="0" width="148" height="52.2169811"></rect>
                    <rect id="Rectangle-Copy-5" fill="#D5F6F8" x="8.09375" y="10.4433962" width="15.03125" height="29.009434" rx="1.15999997"></rect>
                    <rect id="Rectangle-Copy-9" fill="#D5F6F8" x="126.03125" y="10.4433962" width="15.03125" height="29.009434" rx="1.15999997"></rect>
                    <rect id="Rectangle-Copy-10" fill="#D5F6F8" x="106.375" y="10.4433962" width="15.03125" height="29.009434" rx="1.15999997"></rect>
                    <rect id="Rectangle-Copy-11" fill="#D5F6F8" x="86.71875" y="10.4433962" width="15.03125" height="29.009434" rx="1.15999997"></rect>
                    <rect id="Rectangle-Copy-12" fill="#D5F6F8" x="67.0625" y="10.4433962" width="15.03125" height="29.009434" rx="1.15999997"></rect>
                    <rect id="Rectangle-Copy-13" fill="#D5F6F8" x="47.40625" y="10.4433962" width="15.03125" height="29.009434" rx="1.15999997"></rect>
                    <rect id="Rectangle-Copy-14" fill="#D5F6F8" x="27.75" y="10.4433962" width="15.03125" height="29.009434" rx="1.15999997"></rect>
                </g>
                <g id="Group-8-Copy-2" transform="translate(0.000000, 184.500000)">
                    <rect id="Rectangle-Copy-4" fill="#26B2BA" x="0" y="0" width="148" height="52.2169811"></rect>
                    <rect id="Rectangle-Copy-5" fill="#D5F6F8" x="8.09375" y="10.4433962" width="15.03125" height="29.009434" rx="1.15999997"></rect>
                    <rect id="Rectangle-Copy-9" fill="#D5F6F8" x="126.03125" y="10.4433962" width="15.03125" height="29.009434" rx="1.15999997"></rect>
                    <rect id="Rectangle-Copy-10" fill="#D5F6F8" x="106.375" y="10.4433962" width="15.03125" height="29.009434" rx="1.15999997"></rect>
                    <rect id="Rectangle-Copy-11" fill="#D5F6F8" x="86.71875" y="10.4433962" width="15.03125" height="29.009434" rx="1.15999997"></rect>
                    <rect id="Rectangle-Copy-12" fill="#D5F6F8" x="67.0625" y="10.4433962" width="15.03125" height="29.009434" rx="1.15999997"></rect>
                    <rect id="Rectangle-Copy-13" fill="#D5F6F8" x="47.40625" y="10.4433962" width="15.03125" height="29.009434" rx="1.15999997"></rect>
                    <rect id="Rectangle-Copy-14" fill="#D5F6F8" x="27.75" y="10.4433962" width="15.03125" height="29.009434" rx="1.15999997"></rect>
                </g>
                <rect id="Rectangle-Copy-19" fill="#005D62" x="15.03125" y="26.6886792" width="123.71875" height="8.12264151"></rect>
                <rect id="Rectangle-Copy-20" fill="#70C1C5" x="20.8125" y="34.8113208" width="112.15625" height="16.245283"></rect>
                <rect id="Rectangle-Copy-21" fill="#005D62" x="34.6875" y="0" width="4.625" height="33.6509434"></rect>
                <rect id="Rectangle-Copy-22" fill="#005D62" x="47.40625" y="0" width="4.625" height="33.6509434"></rect>
                <polygon id="Combined-Shape" fill-opacity="0.251311189" fill="#005D62" points="72.84375 30.1698113 137.59375 30.1698113 137.59375 35.3616028 131.8125 35.3616028 131.8125 50.9369772 146.84375 50.9369772 146.84375 246 72.84375 246 72.84375 158.665303 124.711145 158.665303 124.711145 136.181762 72.84375 136.181762"></polygon>
                <g id="Group-19" transform="translate(2.312500, 129.962264)">
                    <path d="M143.375,0 L143.375,47.5754717 L0,47.5754717 L0,0 L143.375,0 Z M122.5625,5.80188679 L16.1875,5.80188679 L16.1875,29.009434 L122.5625,29.009434 L122.5625,5.80188679 Z" id="Combined-Shape" fill="#E2EEEF"></path>
                    <path d="M128.316641,-2.84217094e-14 L128.316641,37.9890499 L10.40625,37.9890499 L10.40625,-2.84217094e-14 L128.316641,-2.84217094e-14 Z M122.398645,5.80188679 L16.023645,5.80188679 L16.023645,29.009434 L122.398645,29.009434 L122.398645,5.80188679 Z" id="Combined-Shape" fill="#D7E3E4"></path>
                    <rect id="Rectangle" stroke="#A9BBBC" stroke-width="0.579999983" x="16.4775" y="6.09188678" width="105.795" height="22.6275472"></rect>
                    <polygon id="Rectangle" fill="#BFD6D8" points="10.570105 37.9890499 128.480496 37.9890499 143.375 47.5754717 0 47.5754717"></polygon>
                    <g id="Group-6" transform="translate(61.859375, 33.070755) scale(-1, 1) translate(-61.859375, -33.070755) translate(54.343750, 22.047170)">
                        <ellipse id="Oval" fill="#AEC8CA" cx="6.8686756" cy="19.6897716" rx="5.7124256" ry="1.12373386"></ellipse>
                        <g id="Group-5">
                            <path d="M7.39896155,12.642006 L7.39831092,18.146006 L11.2228967,18.4199763 C11.5016707,18.4398691 11.7186512,18.6594029 11.7437833,18.9289622 L11.7448768,19.0204629 L8.95531092,18.8212085 L11.0573781,19.5597308 C11.3212652,19.6524546 11.4739117,19.9206266 11.4293685,20.1880027 L11.4070996,20.2768569 L10.98612,20.1289345 L10.9148028,20.1038753 L7.53631092,18.9162085 L7.53661036,20.6542456 C7.53661036,20.8062883 7.41335542,20.9295432 7.26131274,20.9295432 C7.10927007,20.9295432 6.98601513,20.8062883 6.98601513,20.6542456 L6.98531092,18.8242085 L2.89815831,20.2604501 L2.87588936,20.171596 C2.83629543,19.9339283 2.95250572,19.6956318 3.16415539,19.5804883 L3.24787984,19.5433241 L5.27331092,18.8312085 L2.85867486,19.0040561 L2.85976833,18.9125554 C2.88210799,18.6729471 3.05603155,18.4728652 3.29019734,18.4173893 L3.38065497,18.4035695 L7.12331092,18.136006 L7.12366394,12.642006 L7.39896155,12.642006 Z" id="Combined-Shape" fill="#1B1A1A"></path>
                            <rect id="Rectangle" fill="#1A9199" x="3.13184846" y="7.86613704" width="7.1577381" height="1" rx="0.417599988"></rect>
                            <polygon id="Rectangle" fill="#3A3A3A" points="6.02247346 12.2206058 8.43819913 12.2206058 7.94955679 14.2859504 6.53182382 14.2859504"></polygon>
                            <path d="M3.78465907,13.4848064 C3.75711156,12.965028 3.81238789,12.6349661 3.95048805,12.4946206 C4.08858821,12.3542751 4.41272358,12.2814469 4.92289417,12.2761359 L12.7930448,12.3789685 C13.0384092,12.3789685 13.2108801,12.3119298 13.3104575,12.1778523 C13.4100349,12.0437749 13.4449816,11.8466562 13.4152975,11.5864963 C12.6745862,9.15028039 12.3856997,6.99427823 12.5486377,5.11848987 C12.705211,3.31597451 13.0162408,1.67009108 13.4817271,0.180839601 C13.5047875,0.107436766 13.4638631,0.0292974233 13.3904269,0.00634390404 C13.3769739,0.00213898644 13.3629607,-2.58917771e-18 13.3488659,0 L7.63462411,0 C7.55779816,9.43029193e-05 7.49551842,0.0623740431 7.49551842,0.139199996 C7.49551842,0.148971621 7.49654804,0.158716049 7.49859022,0.168271892 C7.99096165,2.47218769 8.26458848,4.01866294 8.31947072,4.80769763 C8.39941186,5.95700098 8.62699408,7.52455968 8.43631591,8.7007737 C8.2928023,9.5860492 7.88625816,10.2249572 7.66512029,10.475241 C7.46045197,10.7068847 7.12259951,10.8898518 6.65156293,11.0241424 L6.65156293,11.0241424 L0.606904973,11.0241424 C0.41538238,11.0241132 0.237300721,11.1225405 0.135411511,11.2847116 C0.0678733043,11.3922083 0.026260732,11.4928032 0.0105737938,11.5864963 C-0.0171910119,11.7523268 0.00972307428,12.0550349 0.0913160523,12.4946206 L3.78465907,13.4848064 Z" id="Path-2" fill="#26B2BA"></path>
                            <rect id="Rectangle" fill="#21A9B2" x="6.71071751" y="8.42800397" width="7.1577381" height="1" rx="0.417599988"></rect>
                            <path d="M0.555085842,11.0208293 L6.71071751,11.085298 C6.73343361,11.085298 6.87108242,11.0371702 7.12366394,10.9409146 L13.2967616,11.9396723 C13.2794966,12.079434 13.2499766,12.1730785 13.2082018,12.2206058 C13.1664269,12.268133 13.0763518,12.310552 12.9379765,12.3478626 L4.60195724,12.2206058 C4.27861888,12.2854098 4.06819653,12.3541647 3.9706902,12.4268704 C3.87318386,12.4995761 3.79402864,12.8334399 3.73322453,13.4284618 L0.0913160523,12.4946206 C0.0243235719,11.822037 0.0218438647,11.434403 0.0838769305,11.3317187 C0.145909996,11.2290343 0.302979633,11.1254045 0.555085842,11.0208293 Z" id="Rectangle" fill-opacity="0.567963287" fill="#1FA4AC"></path>
                        </g>
                    </g>
                    <g id="Group-9" transform="translate(33.531250, 20.886792)">
                        <polygon id="Rectangle" fill="#AEC8CA" points="0.412946429 21.7723436 26.665292 21.7723436 27.2544643 23.455211 -6.39488462e-14 23.455211"></polygon>
                        <rect id="Rectangle" fill="#FFFFFF" x="0.825892857" y="10.1136048" width="24.7767857" height="1.68560079"></rect>
                        <polygon id="Rectangle" fill="#FFFFFF" transform="translate(3.303286, 16.855952) rotate(11.000000) translate(-3.303286, -16.855952) " points="2.49865431 11.2341604 4.10791734 10.9638255 4.1055712 22.4782363 2.49923621 22.7480794"></polygon>
                        <polygon id="Rectangle" fill="#FFFFFF" transform="translate(23.951178, 16.855952) scale(-1, 1) rotate(11.000000) translate(-23.951178, -16.855952) " points="23.1465469 11.2341604 24.75581 10.9638255 24.7534638 22.4782363 23.1471289 22.7480794"></polygon>
                        <rect id="Rectangle" fill="#3A3A3A" x="6.60714286" y="-4.08562073e-14" width="14.0401786" height="7.58520357"></rect>
                        <path d="" id="Combined-Shape" stroke="#1B1A1A" stroke-width="0.835199976" fill="#D8D8D8"></path>
                        <polygon id="Rectangle" fill="#E5E5E5" points="3.44122024 11.7992056 5.09300595 11.7992056 4.9514648 12.642006 3.30357143 12.642006"></polygon>
                        <polygon id="Rectangle" fill="#E5E5E5" transform="translate(23.056176, 12.220606) scale(-1, 1) translate(-23.056176, -12.220606) " points="22.2991071 11.7992056 23.9508929 11.7992056 23.8093517 12.642006 22.1614583 12.642006"></polygon>
                    </g>
                    <g id="Group" transform="translate(79.973958, 19.726415)">
                        <polygon id="Rectangle" fill="#AEC8CA" points="0.412946429 21.7723436 26.665292 21.7723436 27.2544643 23.455211 0 23.455211"></polygon>
                        <rect id="Rectangle" fill="#FFFFFF" x="0.825892857" y="10.1136048" width="24.7767857" height="1.68560079"></rect>
                        <polygon id="Rectangle" fill="#FFFFFF" transform="translate(3.303286, 16.855952) rotate(11.000000) translate(-3.303286, -16.855952) " points="2.49865431 11.2341604 4.10791734 10.9638255 4.1055712 22.4782363 2.49923621 22.7480794"></polygon>
                        <polygon id="Rectangle" fill="#FFFFFF" transform="translate(23.951178, 16.855952) scale(-1, 1) rotate(11.000000) translate(-23.951178, -16.855952) " points="23.1465469 11.2341604 24.75581 10.9638255 24.7534638 22.4782363 23.1471289 22.7480794"></polygon>
                        <polygon id="Rectangle" fill="#E5E5E5" points="3.44122024 11.7992056 5.09300595 11.7992056 4.9514648 12.642006 3.30357143 12.642006"></polygon>
                        <polygon id="Rectangle" fill="#E5E5E5" transform="translate(23.056176, 12.220606) scale(-1, 1) translate(-23.056176, -12.220606) " points="22.2991071 11.7992056 23.9508929 11.7992056 23.8093517 12.642006 22.1614583 12.642006"></polygon>
                        <g id="Group-4" transform="translate(6.056548, 0.000000)" stroke-width="0.835199976">
                            <rect id="Rectangle" stroke="#3A3A3A" fill="#FFFFFF" x="0.417599988" y="0.417599988" width="13.2049786" height="6.7500036"></rect>
                            <rect id="Rectangle" stroke="#1B1A1A" fill="#D8D8D8" x="7.02474285" y="8.00280356" width="1" height="1.69320122"></rect>
                            <path d="" id="Rectangle" stroke="#1B1A1A" fill="#D8D8D8"></path>
                        </g>
                    </g>
                    <g id="Group-6" transform="translate(94.812500, 24.367925)">
                        <ellipse id="Oval" fill="#AEC8CA" cx="6.8686756" cy="19.6897716" rx="5.7124256" ry="1.12373386"></ellipse>
                        <g id="Group-5">
                            <path d="M7.39896155,12.642006 L7.39831092,18.146006 L11.2228967,18.4199763 C11.5016707,18.4398691 11.7186512,18.6594029 11.7437833,18.9289622 L11.7448768,19.0204629 L8.95531092,18.8212085 L11.0573781,19.5597308 C11.3212652,19.6524546 11.4739117,19.9206266 11.4293685,20.1880027 L11.4070996,20.2768569 L10.98612,20.1289345 L10.9148028,20.1038753 L7.53631092,18.9162085 L7.53661036,20.6542456 C7.53661036,20.8062883 7.41335542,20.9295432 7.26131274,20.9295432 C7.10927007,20.9295432 6.98601513,20.8062883 6.98601513,20.6542456 L6.98531092,18.8242085 L2.89815831,20.2604501 L2.87588936,20.171596 C2.83629543,19.9339283 2.95250572,19.6956318 3.16415539,19.5804883 L3.24787984,19.5433241 L5.27331092,18.8312085 L2.85867486,19.0040561 L2.85976833,18.9125554 C2.88210799,18.6729471 3.05603155,18.4728652 3.29019734,18.4173893 L3.38065497,18.4035695 L7.12331092,18.136006 L7.12366394,12.642006 L7.39896155,12.642006 Z" id="Combined-Shape" fill="#1B1A1A"></path>
                            <rect id="Rectangle" fill="#1A9199" x="3.13184846" y="7.86613704" width="7.1577381" height="1" rx="0.417599988"></rect>
                            <polygon id="Rectangle" fill="#3A3A3A" points="6.02247346 12.2206058 8.43819913 12.2206058 7.94955679 14.2859504 6.53182382 14.2859504"></polygon>
                            <path d="M3.78465907,13.4848064 C3.75711156,12.965028 3.81238789,12.6349661 3.95048805,12.4946206 C4.08858821,12.3542751 4.41272358,12.2814469 4.92289417,12.2761359 L12.7930448,12.3789685 C13.0384092,12.3789685 13.2108801,12.3119298 13.3104575,12.1778523 C13.4100349,12.0437749 13.4449816,11.8466562 13.4152975,11.5864963 C12.6745862,9.15028039 12.3856997,6.99427823 12.5486377,5.11848987 C12.705211,3.31597451 13.0162408,1.67009108 13.4817271,0.180839601 C13.5047875,0.107436766 13.4638631,0.0292974233 13.3904269,0.00634390404 C13.3769739,0.00213898644 13.3629607,-2.58917771e-18 13.3488659,0 L7.63462411,0 C7.55779816,9.43029193e-05 7.49551842,0.0623740431 7.49551842,0.139199996 C7.49551842,0.148971621 7.49654804,0.158716049 7.49859022,0.168271892 C7.99096165,2.47218769 8.26458848,4.01866294 8.31947072,4.80769763 C8.39941186,5.95700098 8.62699408,7.52455968 8.43631591,8.7007737 C8.2928023,9.5860492 7.88625816,10.2249572 7.66512029,10.475241 C7.46045197,10.7068847 7.12259951,10.8898518 6.65156293,11.0241424 L6.65156293,11.0241424 L0.606904973,11.0241424 C0.41538238,11.0241132 0.237300721,11.1225405 0.135411511,11.2847116 C0.0678733043,11.3922083 0.026260732,11.4928032 0.0105737938,11.5864963 C-0.0171910119,11.7523268 0.00972307428,12.0550349 0.0913160523,12.4946206 L3.78465907,13.4848064 Z" id="Path-2" fill="#26B2BA"></path>
                            <rect id="Rectangle" fill="#21A9B2" x="6.71071751" y="8.42800397" width="7.1577381" height="1" rx="0.417599988"></rect>
                            <path d="M0.555085842,11.0208293 L6.71071751,11.085298 C6.73343361,11.085298 6.87108242,11.0371702 7.12366394,10.9409146 L13.2967616,11.9396723 C13.2794966,12.079434 13.2499766,12.1730785 13.2082018,12.2206058 C13.1664269,12.268133 13.0763518,12.310552 12.9379765,12.3478626 L4.60195724,12.2206058 C4.27861888,12.2854098 4.06819653,12.3541647 3.9706902,12.4268704 C3.87318386,12.4995761 3.79402864,12.8334399 3.73322453,13.4284618 L0.0913160523,12.4946206 C0.0243235719,11.822037 0.0218438647,11.434403 0.0838769305,11.3317187 C0.145909996,11.2290343 0.302979633,11.1254045 0.555085842,11.0208293 Z" id="Rectangle" fill-opacity="0.567963287" fill="#1FA4AC"></path>
                        </g>
                    </g>
                    <g id="Group-11-Copy" transform="translate(11.562500, 17.405660)">
                        <path d="M8.59515783,0.708369899 C8.67498024,0.708369899 8.73968908,0.773078744 8.73968908,0.852901149 L8.73968908,16.8592036 L8.73968908,16.8592036 L8.45062658,16.8592036 L8.45062658,0.852901149 C8.45062658,0.773078744 8.51533543,0.708369899 8.59515783,0.708369899 Z" id="Rectangle" fill="#05ACB6"></path>
                        <path d="M4.53474879,16.4118523 C6.84568669,16.4246474 8.58024123,15.5235738 8.71308038,15.3706333 C8.84591953,15.2176927 6.83370345,14.2958741 4.52276555,14.283079 C2.21182766,14.2702839 1.30664381,15.4723829 0.344433967,15.3242981 C-0.61777588,15.1762132 2.2238109,16.3990572 4.53474879,16.4118523 Z" id="Oval" fill="#05ACB6" transform="translate(4.435653, 15.347482) rotate(-17.000000) translate(-4.435653, -15.347482) "></path>
                        <path d="M12.9699952,15.6364062 C15.2809331,15.6492013 17.0154876,14.7481276 17.1483267,14.5951871 C17.2811659,14.4422465 15.2689498,13.5204279 12.9580119,13.5076328 C10.647074,13.4948377 9.74189018,14.6969367 8.77968034,14.5488519 C7.81747049,14.400767 10.6590573,15.623611 12.9699952,15.6364062 Z" id="Oval" fill="#05ACB6" transform="translate(12.870900, 14.572036) scale(-1, 1) rotate(-17.000000) translate(-12.870900, -14.572036) "></path>
                        <path d="M4.53474879,13.0116768 C6.84568669,13.0244719 8.58024123,12.1233983 8.71308038,11.9704577 C8.84591953,11.8175172 6.83370345,10.8956986 4.52276555,10.8829035 C2.21182766,10.8701084 1.30664381,12.0722074 0.344433967,11.9241226 C-0.61777588,11.7760377 2.2238109,12.9988817 4.53474879,13.0116768 Z" id="Oval" fill="#05ACB6" transform="translate(4.435653, 11.947307) rotate(-17.000000) translate(-4.435653, -11.947307) "></path>
                        <path d="M12.9699952,12.2362306 C15.2809331,12.2490257 17.0154876,11.3479521 17.1483267,11.1950116 C17.2811659,11.042071 15.2689498,10.1202524 12.9580119,10.1074573 C10.647074,10.0946622 9.74189018,11.2967612 8.77968034,11.1486764 C7.81747049,11.0005915 10.6590573,12.2234355 12.9699952,12.2362306 Z" id="Oval" fill="#05ACB6" transform="translate(12.870900, 11.171861) scale(-1, 1) rotate(-17.000000) translate(-12.870900, -11.171861) "></path>
                        <path d="M4.53474879,10.0365232 C6.84568669,10.0493184 8.58024123,9.14824471 8.71308038,8.99530417 C8.84591953,8.84236364 6.83370345,7.92054502 4.52276555,7.90774991 C2.21182766,7.8949548 1.30664381,9.09705384 0.344433967,8.94896898 C-0.61777588,8.80088412 2.2238109,10.0237281 4.53474879,10.0365232 Z" id="Oval" fill="#05ACB6" transform="translate(4.435653, 8.972153) rotate(-17.000000) translate(-4.435653, -8.972153) "></path>
                        <path d="M12.9699952,9.26107706 C15.2809331,9.27387217 17.0154876,8.37279852 17.1483267,8.21985798 C17.2811659,8.06691745 15.2689498,7.14509883 12.9580119,7.13230372 C10.647074,7.11950861 9.74189018,8.32160765 8.77968034,8.17352279 C7.81747049,8.02543793 10.6590573,9.24828195 12.9699952,9.26107706 Z" id="Oval" fill="#05ACB6" transform="translate(12.870900, 8.196707) scale(-1, 1) rotate(-17.000000) translate(-12.870900, -8.196707) "></path>
                        <path d="M5.20657775,6.37719622 C7.07469691,6.38753955 8.47692146,5.66676137 8.58431341,5.54441514 C8.69170535,5.42206892 7.06511032,4.68452088 5.19699116,4.67417755 C3.328872,4.66383422 2.59708129,5.62547114 1.8192555,5.50695863 C1.04142972,5.38844613 3.33845859,6.3668529 5.20657775,6.37719622 Z" id="Oval" fill="#05ACB6" transform="translate(5.126521, 5.525701) rotate(-17.000000) translate(-5.126521, -5.525701) "></path>
                        <path d="M11.99932,5.66882632 C13.8674391,5.67916965 15.2696637,4.95839147 15.3770556,4.83604524 C15.4844476,4.71369902 13.8578525,3.97615098 11.9897334,3.96580765 C10.1216142,3.95546432 9.3898235,4.91710124 8.61199771,4.79858874 C7.83417193,4.68007623 10.1312008,5.658483 11.99932,5.66882632 Z" id="Oval" fill="#05ACB6" transform="translate(11.919263, 4.817331) scale(-1, 1) rotate(-17.000000) translate(-11.919263, -4.817331) "></path>
                        <path d="M6.05372277,2.69320597 C7.45481214,2.70096346 8.50648055,2.16037982 8.58702451,2.06862015 C8.66756847,1.97686048 7.44762219,1.42369946 6.04653283,1.41594196 C4.64544346,1.40818446 4.09660042,2.12941215 3.51323108,2.04052777 C2.92986175,1.9516434 4.6526334,2.68544847 6.05372277,2.69320597 Z" id="Oval" fill="#05ACB6" transform="translate(5.993680, 2.054584) rotate(-17.000000) translate(-5.993680, -2.054584) "></path>
                        <path d="M11.1121466,2.12651005 C12.513236,2.13426754 13.5649044,1.5936839 13.6454484,1.50192423 C13.7259923,1.41016457 12.506046,0.857003538 11.1049567,0.849246042 C9.70386731,0.841488545 9.15502427,1.56271623 8.57165493,1.47383185 C7.98828559,1.38494748 9.71105725,2.11875255 11.1121466,2.12651005 Z" id="Oval" fill="#05ACB6" transform="translate(11.052104, 1.487888) scale(-1, 1) rotate(-17.000000) translate(-11.052104, -1.487888) "></path>
                        <path d="M4.69821332,16.8592036 L12.4811658,16.8592036 C12.8040536,16.8592036 13.0658058,17.1209558 13.0658058,17.4438436 C13.0658058,17.489141 13.0605415,17.5342849 13.0501187,17.5783669 L11.55122,23.9178079 C11.4888488,24.1816005 11.253333,24.3679245 10.9822671,24.3679245 L6.10014897,24.3679245 C5.82590416,24.3679245 5.58851821,24.1772999 5.52930107,23.9095247 L4.12736542,17.5700837 C4.0576449,17.2548131 4.25670257,16.9427162 4.57197316,16.8729957 C4.61342761,16.8638282 4.65575731,16.8592036 4.69821332,16.8592036 Z" id="Rectangle" fill="#2A959C"></path>
                        <path d="M8.59515783,16.8592036 L12.5938475,16.8592036 C12.7901382,16.8881603 12.9219819,16.9491664 12.9893785,17.0422219 C13.0567752,17.1352773 13.0904735,17.2607799 13.0904735,17.4187297 L11.5535318,23.7731918 C11.5217676,23.9677629 11.4748634,24.1017828 11.4128191,24.1752518 C11.3507749,24.2487207 11.2302626,24.3129449 11.0512821,24.3679245 L8.59515783,24.3679245 L8.59515783,16.8592036 Z" id="Rectangle" fill="#26858B"></path>
                    </g>
                </g>
            </g>
        </g>
    </g>
</svg>